<svg xmlns="http://www.w3.org/2000/svg" viewBox="0 0 1024 1024">
  <path d="M246 526c18-105 90-181 178-181 34 0 63 10 88 30 25-20 54-30 88-30 88 0 160 76 178 181 18 104 0 213-74 278-47 42-114 61-192 61s-145-19-192-61c-74-65-92-174-74-278Z" fill="#fff1d2"/>
  <path d="M244 541c27-86 89-139 163-139 61 0 102 36 105 91 3 58-35 105-102 124-55 16-106 6-166-18Z" fill="#b96c50"/>
  <path d="M780 541c-27-86-89-139-163-139-61 0-102 36-105 91-3 58 35 105 102 124 55 16 106 6 166-18Z" fill="#b96c50"/>
  <path d="M294 686c22 102 101 158 218 158s196-56 218-158c-53 65-125 96-218 96s-165-31-218-96Z" fill="#ffe4b0" opacity=".72"/>
</svg>
