<svg xmlns="http://www.w3.org/2000/svg" viewBox="0 0 1024 1024">
  <path d="M512 898C304 898 162 784 162 585c0-161 94-281 235-325 25-72 77-130 133-151 24-9 39 15 23 38l-29 42c39-28 83-37 111-21 23 13 18 39-7 60l-47 38c166 30 281 155 281 319 0 199-142 313-350 313Z" fill="#e9a65a" stroke="#172f56" stroke-width="44" stroke-linejoin="round"/>
  <path d="M512 862c-182 0-308-97-308-273 0-138 84-240 207-278 26-8 45-29 53-55 14-43 38-77 69-96-14 28-20 57-19 86 42-34 82-46 112-38-25 30-51 52-81 69 160 15 275 123 275 312 0 176-126 273-308 273Z" fill="#f2b768" opacity=".82"/>
  <path d="M235 552c18-131 98-218 206-249 22-6 42-23 55-44" fill="none" stroke="#ffd49c" stroke-width="22" stroke-linecap="round" opacity=".72"/>
</svg>
